<svg id="Capa_1" data-name="Capa 1" xmlns="http://www.w3.org/2000/svg" viewBox="0 0 100 100"><defs><style>.cls-1{fill:#111820;}.cls-2{fill:none;stroke:#faae2b;stroke-miterlimit:10;stroke-width:1.75px;}.cls-3{fill:#faae2b;}</style></defs><title>kundu</title><rect class="cls-1" width="100" height="100" rx="27.05"/><path class="cls-2" d="M26.2,30.11V74.92a3.51,3.51,0,0,1-3.51,3.5H15.22a.67.67,0,0,1-.47-1.15l3.42-3.42a3.5,3.5,0,0,0,1-2.48V35.06a3.5,3.5,0,0,0-1-2.48l-4.82-4.82a.67.67,0,0,1,.47-1.15h8.87A3.51,3.51,0,0,1,26.2,30.11Z"/><path class="cls-3" d="M55.47,41.72l-9,9a3.79,3.79,0,0,0-.2,5.13L75.05,89.7A3.8,3.8,0,0,0,77.93,91h8.2a.58.58,0,0,0,.44-1L57.44,55.87a3.78,3.78,0,0,1,.21-5.13l9.14-9.14a.58.58,0,0,0-.41-1H58.15A3.78,3.78,0,0,0,55.47,41.72Z"/><path class="cls-3" d="M78.61,7.46l-36.8,45a1.28,1.28,0,0,0,0,1.58l7.6,9.76a1.27,1.27,0,0,1-1,2h-8a1.26,1.26,0,0,1-1-.49L30.6,54a1.27,1.27,0,0,1,0-1.6l38.16-45a1.26,1.26,0,0,1,1-.45h8.62A.28.28,0,0,1,78.61,7.46Z"/></svg>